<svg width="15" height="16" viewBox="0 0 15 16" fill="none" xmlns="http://www.w3.org/2000/svg">
<path d="M8.53033 14.2196C8.82323 14.5126 8.82323 14.9875 8.53033 15.2804C8.23744 15.5732 7.76257 15.5732 7.46968 15.2804L0.719679 8.53033C0.426774 8.23744 0.426774 7.76257 0.719679 7.46968L7.46968 0.719679C7.76257 0.426774 8.23744 0.426774 8.53033 0.719679C8.82323 1.01257 8.82323 1.48744 8.53033 1.78033L2.31067 8L8.53033 14.2196ZM14.5304 14.2196C14.8232 14.5126 14.8232 14.9875 14.5304 15.2804C14.2375 15.5732 13.7626 15.5732 13.4696 15.2804L6.71968 8.53033C6.42677 8.23744 6.42677 7.76257 6.71968 7.46968L13.4696 0.719679C13.7626 0.426774 14.2375 0.426774 14.5304 0.719679C14.8232 1.01257 14.8232 1.48744 14.5304 1.78033L8.31067 8L14.5304 14.2196Z" fill="#AFBCC3"/>
</svg>
